<?xml version="1.0" standalone="no"?>
<!DOCTYPE svg PUBLIC "-//W3C//DTD SVG 20010904//EN"
 "http://www.w3.org/TR/2001/REC-SVG-20010904/DTD/svg10.dtd">
<svg version="1.0" xmlns="http://www.w3.org/2000/svg"
 width="207.000000pt" height="100.000000pt" viewBox="0 0 207.000000 100.000000"
 preserveAspectRatio="xMidYMid meet">

<g transform="translate(0.000000,100.000000) scale(0.100000,-0.100000)"
fill="#000000" stroke="none">
<path d="M190 733 c-87 -13 -130 -50 -130 -113 0 -53 29 -84 121 -130 104 -53
127 -97 73 -139 -37 -29 -98 -27 -160 4 l-49 25 -20 -21 -20 -20 23 -19 c12
-10 48 -24 78 -31 109 -25 221 21 245 100 18 60 -2 87 -113 147 -70 38 -95 58
-103 78 -8 25 -6 31 18 52 34 29 79 31 129 4 l36 -19 16 24 c9 13 16 26 16 29
0 14 -117 35 -160 29z"/>
<path d="M945 505 l0 -215 128 0 c103 0 127 3 127 14 0 8 2 21 5 28 5 11 -13
13 -95 10 l-101 -4 3 191 3 191 -35 0 -35 0 0 -215z"/>
<path d="M1285 505 l0 -215 128 0 c103 0 127 3 127 14 0 8 2 21 5 28 5 11 -13
13 -95 10 l-100 -4 0 81 0 81 55 0 c30 0 55 4 55 9 0 5 3 16 6 25 5 14 -3 16
-55 16 l-61 0 0 66 0 67 58 -6 c31 -3 65 -8 75 -12 14 -6 17 -2 17 24 l0 31
-107 0 -108 0 0 -215z"/>
<path d="M1618 505 l-3 -215 38 0 37 0 0 215 0 215 -35 0 -34 0 -3 -215z"/>
<path d="M1795 505 l0 -215 128 0 c103 0 127 3 127 14 0 8 2 20 5 28 4 10 -15
12 -95 10 l-101 -4 3 191 3 191 -35 0 -35 0 0 -215z"/>
<path d="M657 203 c-16 -16 -6 -50 19 -62 31 -14 29 -46 -4 -45 -26 1 -29 -11
-6 -20 20 -8 64 19 64 39 0 8 -13 24 -30 37 -37 27 -38 38 -5 38 14 0 25 5 25
10 0 11 -53 14 -63 3z"/>
<path d="M740 207 c0 -2 11 -18 25 -37 14 -19 25 -47 25 -62 0 -15 5 -28 10
-28 6 0 10 12 10 26 0 14 8 38 18 52 32 46 34 52 19 52 -7 0 -19 -11 -25 -25
-6 -14 -15 -25 -20 -25 -5 0 -15 11 -22 25 -7 14 -19 25 -27 25 -7 0 -13 -1
-13 -3z"/>
<path d="M880 145 c0 -37 4 -65 10 -65 6 0 10 21 10 46 0 52 11 51 40 -7 32
-61 50 -52 50 26 0 75 -17 89 -22 18 l-3 -48 -25 48 c-15 30 -31 47 -42 47
-15 0 -18 -9 -18 -65z"/>
<path d="M1037 192 c-22 -24 -22 -75 1 -94 23 -20 49 -29 67 -22 23 9 18 23
-5 17 -42 -11 -79 54 -48 85 7 7 25 12 40 12 15 0 28 5 28 10 0 18 -66 11 -83
-8z"/>
<path d="M1140 145 c0 -51 3 -65 15 -65 10 0 15 10 15 31 0 27 3 30 28 27 21
-2 28 -9 30 -30 6 -54 22 -27 22 37 0 37 -4 65 -10 65 -5 0 -10 -11 -10 -25 0
-21 -5 -25 -30 -25 -25 0 -30 4 -30 25 0 16 -6 25 -15 25 -12 0 -15 -14 -15
-65z"/>
<path d="M1280 145 c0 -37 4 -65 10 -65 6 0 10 11 10 24 0 43 31 42 44 -1 4
-13 14 -23 22 -23 13 0 12 4 -1 30 -12 24 -13 34 -3 49 17 28 -5 51 -48 51
l-34 0 0 -65z m64 36 c8 -12 -21 -34 -34 -26 -17 11 -11 35 9 35 11 0 22 -4
25 -9z"/>
<path d="M1417 192 c-20 -22 -22 -71 -3 -97 17 -23 71 -24 93 -2 20 20 22 79
4 101 -18 22 -74 20 -94 -2z m81 -40 c5 -54 -29 -80 -62 -46 -34 34 -12 87 34
82 20 -2 26 -9 28 -36z"/>
<path d="M1540 200 c0 -5 9 -10 20 -10 18 0 20 -7 20 -55 0 -30 5 -55 10 -55
6 0 10 25 10 55 0 48 2 55 20 55 11 0 20 5 20 10 0 6 -22 10 -50 10 -27 0 -50
-4 -50 -10z"/>
<path d="M1660 145 c0 -51 3 -65 15 -65 10 0 15 10 15 30 0 36 25 32 34 -6 4
-13 13 -24 21 -24 14 0 14 3 0 30 -12 24 -13 34 -3 49 17 28 -5 51 -48 51
l-34 0 0 -65z m63 38 c8 -7 -11 -33 -24 -33 -5 0 -9 9 -9 20 0 19 20 27 33 13z"/>
<path d="M1797 192 c-20 -22 -22 -71 -3 -97 20 -27 74 -24 98 5 21 25 19 70
-3 97 -17 19 -73 16 -92 -5z m81 -40 c5 -54 -29 -80 -62 -46 -34 34 -12 87 34
82 20 -2 26 -9 28 -36z"/>
<path d="M1940 145 c0 -37 4 -65 10 -65 6 0 10 21 10 48 l0 47 27 -47 c38 -68
53 -63 53 17 0 75 -17 89 -22 18 l-3 -48 -25 48 c-35 67 -50 62 -50 -18z"/>
</g>
</svg>
