<?xml version="1.0" encoding="UTF-8" standalone="no"?>
<!-- Created with Inkscape (http://www.inkscape.org/) -->

<svg
   xmlns:dc="http://purl.org/dc/elements/1.1/"
   xmlns:cc="http://creativecommons.org/ns#"
   xmlns:rdf="http://www.w3.org/1999/02/22-rdf-syntax-ns#"
   xmlns:svg="http://www.w3.org/2000/svg"
   xmlns="http://www.w3.org/2000/svg"
   xmlns:sodipodi="http://sodipodi.sourceforge.net/DTD/sodipodi-0.dtd"
   xmlns:inkscape="http://www.inkscape.org/namespaces/inkscape"
   width="308.260146099"
   height="324.401325521"
   viewBox="0 0 1000 1052.3622"
   id="svg2"
   version="1.1"
   inkscape:version="0.91 r13725"
   sodipodi:docname="Urmia_University.svg"
   inkscape:export-filename="D:\Dropbox\Other Logos\University\Urmia University\Urmia_University.png"
   inkscape:export-xdpi="89.900002"
   inkscape:export-ydpi="89.900002">
  <defs
     id="defs4" />
  <sodipodi:namedview
     id="base"
     pagecolor="#ffffff"
     bordercolor="#666666"
     borderopacity="1.0"
     inkscape:pageopacity="0.0"
     inkscape:pageshadow="2"
     inkscape:zoom="0.175"
     inkscape:cx="-241.35226"
     inkscape:cy="617.44697"
     inkscape:document-units="px"
     inkscape:current-layer="layer1"
     showgrid="false"
     units="px"
     inkscape:window-width="1366"
     inkscape:window-height="705"
     inkscape:window-x="-8"
     inkscape:window-y="-8"
     inkscape:window-maximized="1" />
  <metadata
     id="metadata7">
    <rdf:RDF>
      <cc:Work
         rdf:about="">
        <dc:format>image/svg+xml</dc:format>
        <dc:type
           rdf:resource="http://purl.org/dc/dcmitype/StillImage" />
        <dc:title></dc:title>
      </cc:Work>
    </rdf:RDF>
  </metadata>
  <g
     inkscape:label="Layer 1"
     inkscape:groupmode="layer"
     id="layer1"
     transform="translate(0,6.1107223e-5)">
    <g
       id="g4238"
       style="fill:#000000"
       transform="translate(-12.327006,0)">
      <path
         inkscape:connector-curvature="0"
         id="path4174"
         d="m 316.40318,25.294861 c 25.7009,79.837929 -22.54933,158.390959 4.26172,228.796879 -78.49634,-30.831 -159.28178,-13.56492 -241.583989,35.52734 93.738369,46.61048 99.947199,138.08523 176.214849,167.6875 -73.91604,38.17033 -97.24326,98.99258 -96.63477,170.53125 109.09175,-46.4337 208.75678,40.69674 353.66602,-41.21289 144.90925,81.90963 244.57426,-5.22081 353.66601,41.21289 C 866.60151,556.29916 843.2743,495.47691 769.35826,457.30658 845.62591,427.70431 851.83473,336.22956 945.5731,289.61908 863.27089,240.52682 782.4835,223.26074 703.98716,254.09174 730.79821,183.68582 682.54994,105.13279 708.25084,25.294861 634.61945,41.671511 567.70812,64.608113 512.32701,150.3515 456.94589,64.608113 390.03457,41.671511 316.40318,25.294861 Z m 69.53711,89.646489 c 63.90667,34.77054 86.96931,97.43424 95.96484,169.70507 l 60.84375,0 c 8.99553,-72.27083 32.05622,-134.93453 95.96289,-169.70507 18.16611,102.06545 -3.26374,150.77635 -30.30468,191.92773 l 33.33593,65.66016 c 74.64652,-83.04356 128.28493,-68.55118 184.85743,-67.67969 -57.57579,70.04599 -77.75924,126.00034 -177.78711,128.28906 l -22.22266,50.50781 c 78.37065,0.0657 123.49896,25.98555 153.54297,63.63868 -77.18919,14.97492 -149.71213,17.22274 -212.13281,-8.08008 29.88035,-31.61295 55.64771,-65.1859 57.58007,-110.10742 l -57.58007,-18.18164 c -10.95586,40.45443 -25.43351,73.60259 -55.67383,89.90234 -30.24033,-16.29975 -44.71992,-49.44791 -55.67578,-89.90234 L 399.0731,429.0976 c 1.93236,44.92152 27.69778,78.49447 57.57813,110.10742 -62.42068,25.30282 -134.94167,23.055 -212.13086,8.08008 30.04401,-37.65313 75.17232,-63.57298 153.54297,-63.63868 L 375.83873,433.13861 C 275.81086,430.84989 255.62935,374.89554 198.05357,304.84955 c 56.5725,-0.87149 110.2109,-15.36387 184.85742,67.67969 l 33.33399,-65.66016 C 389.20404,265.7177 367.77418,217.0068 385.94029,114.94135 Z"
         style="fill:#000000;fill-opacity:1;fill-rule:evenodd;stroke:#000000;stroke-width:1;stroke-linecap:butt;stroke-linejoin:miter;stroke-miterlimit:4;stroke-dasharray:none;stroke-opacity:1" />
      <path
         sodipodi:nodetypes="cccssccccscc"
         inkscape:connector-curvature="0"
         id="rect4182"
         d="m 864.75338,706.86963 0,-62.62946 -273.00387,-0.22476 c -0.0102,28.14661 -15.14611,54.36284 -39.71644,68.54853 -24.57033,14.18569 -54.84223,14.18569 -79.41256,0 -24.57033,-14.18569 -39.70628,-40.40192 -39.76994,-68.54853 l -283.28517,0.22476 0,62.62946 231.62528,10e-4 c 26.6277,47.40056 76.79051,76.72731 131.1759,76.71293 54.38539,-0.0144 104.5327,-29.36764 131.04461,-76.74761 z"
         style="fill:#000000;fill-opacity:1;stroke:#000000;stroke-width:1;stroke-miterlimit:4;stroke-dasharray:none;stroke-dashoffset:0;stroke-opacity:1" />
    </g>
    <g
       id="g4242"
       style="fill:#000000"
       transform="translate(2.0309056,0)">
      <g
         id="g4222"
         style="fill:#000000">
        <path
           style="fill:#000000;fill-opacity:1;stroke:#000000;stroke-width:0.71428573;stroke-miterlimit:4;stroke-dasharray:none;stroke-dashoffset:0;stroke-opacity:1"
           d="m 551.86599,970.91573 c -2.34688,-2.17502 -4.4881,-6.45295 -5.05043,-10.09022 -0.24295,-1.57143 -0.75586,-4.30357 -1.13981,-6.07143 -0.89716,-4.13082 -0.88848,-21.53375 0.0144,-28.92857 0.38374,-3.14285 0.99574,-9.41071 1.36,-13.92857 0.36426,-4.51786 0.98325,-9.66071 1.37553,-11.42857 0.39228,-1.76786 0.72723,-4.89206 0.74434,-6.94266 0.0358,-4.28598 1.83989,-17.76456 2.94284,-21.98591 2.62197,-10.03509 3.37626,-12.2272 6.08311,-17.67857 1.46051,-2.94136 1.85933,-3.15992 3.08068,-1.68829 0.9486,1.143 0.39623,13.2707 -0.81703,17.93829 -0.40846,1.57143 -0.98611,4.94643 -1.28366,7.5 -0.6017,5.16375 -1.8156,12.84149 -2.86018,18.0902 -0.72902,3.66313 -0.95013,14.05265 -0.29907,14.05265 0.61088,0 2.69529,-2.22371 5.35633,-5.71428 1.34772,-1.76786 2.81295,-3.59517 3.25606,-4.06069 0.44311,-0.46553 2.63398,-3.5191 4.8686,-6.78572 2.23462,-3.26662 5.19483,-7.54645 6.57824,-9.51073 1.38342,-1.96429 2.96519,-4.21429 3.51505,-5 0.54987,-0.78572 2.45495,-3.43841 4.23352,-5.89487 1.77857,-2.45646 3.23376,-4.62921 3.23376,-4.82833 0,-0.19912 1.69533,-2.68929 3.76739,-5.53371 2.07206,-2.84442 5.34817,-7.58238 7.28025,-10.52881 1.93207,-2.94643 3.6921,-5.51786 3.91118,-5.71428 0.21908,-0.19643 2.96764,-4.21429 6.1079,-8.92858 3.14027,-4.71428 5.87241,-8.73214 6.07143,-8.92857 0.19902,-0.19643 2.31241,-3.25 4.69642,-6.78571 11.68038,-17.32313 12.79398,-18.31421 12.23948,-10.89286 -0.3823,5.11677 -1.89017,11.25 -2.76582,11.25 -0.32666,0 -0.59394,0.43392 -0.59394,0.96426 0,0.53034 -0.91295,2.22455 -2.02878,3.7649 -1.11583,1.54036 -2.16047,3.11537 -2.32143,3.50003 -0.78206,1.86897 -10.28444,15.77162 -11.12085,16.27059 -0.52663,0.31416 -0.95751,0.87576 -0.95751,1.24799 0,0.55397 -4.70589,7.48638 -7.02056,10.34222 -0.32668,0.40307 -1.20472,1.68879 -1.95119,2.85715 -3.77406,5.9071 -19.12343,26.30376 -27.07161,35.9735 -3.35472,4.08135 -6.0995,7.85813 -6.0995,8.39285 0,0.70752 1.11955,0.97223 4.11186,0.97223 2.26152,0 5.23474,0.34162 6.60714,0.75916 1.37241,0.41754 4.10243,1.04041 6.06671,1.38414 3.46589,0.6065 8.08195,1.60809 13.21429,2.86722 9.75574,2.3934 16.68022,3.0796 30.80374,3.05254 8.10277,-0.0155 16.2992,-0.38016 18.21429,-0.81029 1.91509,-0.43014 5.57126,-1.12608 8.12483,-1.54654 11.41193,-1.87904 19.39765,-3.74636 29.28571,-6.84793 1.76786,-0.55453 3.91853,-1.00664 4.77927,-1.0047 0.86075,0.002 1.74636,-0.28992 1.96803,-0.6486 0.22167,-0.35867 1.68539,-0.86878 3.2527,-1.13358 1.56732,-0.26479 3.03103,-0.7749 3.2527,-1.13357 0.22167,-0.35868 1.05769,-0.65214 1.85782,-0.65214 0.80013,0 2.30795,-0.44749 3.3507,-0.99441 1.04276,-0.54693 3.34235,-1.56146 5.11021,-2.25452 4.14962,-1.62678 15.44924,-7.17161 18.21429,-8.93791 1.17857,-0.75287 2.625,-1.59252 3.21428,-1.86588 7.05285,-3.27174 22.96032,-15.22381 31.13177,-23.39084 7.58105,-7.57694 13.86823,-15.31002 13.86823,-17.05758 0,-0.57102 0.48215,-1.43837 1.07143,-1.92743 0.58929,-0.48907 1.07143,-1.33636 1.07143,-1.88287 0,-0.54651 0.31103,-1.5518 0.69118,-2.23397 0.96676,-1.73482 2.88025,-9.88126 2.88025,-12.26225 0,-3.31478 7.59822,-12.90663 10.22403,-12.90663 1.27864,0 1.3382,0.37811 0.87192,5.53572 -0.27525,3.04464 -0.95587,6.46902 -1.51249,7.60974 -0.55662,1.14071 -1.01203,2.53755 -1.01203,3.10408 0,0.56652 -0.44482,1.88321 -0.9885,2.92597 -0.54367,1.04276 -1.58831,3.17622 -2.32142,4.74102 -0.73312,1.5648 -2.5383,4.8651 -4.01151,7.33401 -1.47322,2.4689 -2.67857,4.63457 -2.67857,4.81259 0,0.33868 -4.3714,6.88809 -5.0114,7.5083 -0.2027,0.19643 -2.19716,3.10378 -4.43213,6.46078 -2.23498,3.357 -4.72092,6.86154 -5.52432,7.78786 -0.8034,0.92633 -1.46072,1.87941 -1.46072,2.11795 0,0.23855 -0.73178,1.23401 -1.62615,2.21214 -0.89439,0.97813 -3.12332,3.73554 -4.95318,6.12759 -1.82986,2.39205 -4.43303,5.28491 -5.78482,6.42858 -5.51701,4.66759 -11.08013,8.8651 -11.74926,8.8651 -0.39142,0 -1.09893,0.46662 -1.57224,1.03693 -1.10866,1.33584 -16.20915,11.49637 -19.31435,12.99586 -0.58929,0.28456 -3,1.66766 -5.35715,3.07355 -2.35714,1.40588 -5.73214,3.28706 -7.5,4.18038 -1.76785,0.89333 -3.69643,1.91175 -4.28571,2.26315 -0.97052,0.57874 -8.96697,4.25703 -12.5,5.74989 -13.37816,5.65282 -24.49694,9.11031 -34.34639,10.68034 -1.99765,0.31843 -5.37265,0.96147 -7.5,1.42898 -5.30608,1.16607 -30.41282,0.5394 -38.8679,-0.97016 -3.53571,-0.63125 -8.64003,-1.46683 -11.34292,-1.85684 -2.70289,-0.39001 -6.07789,-1.0323 -7.5,-1.42732 -4.30211,-1.195 -5.66261,-0.9208 -6.85302,1.3812 -0.59938,1.15906 -1.08977,2.80342 -1.08977,3.65414 0,1.60103 -1.67883,7.20273 -3.3363,11.13214 -0.52218,1.23794 -0.94942,2.90647 -0.94942,3.70784 0,0.80137 -0.27991,1.63004 -0.62202,1.84147 -0.34212,0.21145 -0.81136,1.33108 -1.04276,2.4881 -0.48225,2.41121 -4.86131,6.88708 -10.24198,10.4684 -3.07434,2.04625 -4.3423,2.45767 -7.57427,2.45767 -3.09549,0 -4.25237,-0.34345 -5.71127,-1.6955 z m 14.85112,-28.31057 c 2.58968,-0.9846 8.02112,-6.53918 8.5829,-8.7775 0.74735,-2.97769 -0.14394,-4.35317 -5.21507,-8.04809 -4.21365,-3.07015 -5.23627,-3.50104 -8.21969,-3.46345 -2.86259,0.0361 -3.79942,0.42295 -5.85985,2.42 -4.15386,4.02609 -4.21806,9.91501 -0.15721,14.42212 3.27429,3.63413 7.14655,4.86216 10.86892,3.44692 z"
           id="path4188"
           inkscape:connector-curvature="0"
           transform="translate(0,-6.1107223e-5)" />
        <path
           style="fill:#000000;fill-opacity:1;stroke:#000000;stroke-width:0.71428573;stroke-miterlimit:4;stroke-dasharray:none;stroke-dashoffset:0;stroke-opacity:1"
           d="m 758.18925,959.93266 c -0.22917,-0.22917 -0.41629,-9.60417 -0.41583,-20.83334 8e-4,-19.50003 0.72937,-28.62451 2.51648,-31.51612 0.31725,-0.51332 0.8134,-2.08308 1.10256,-3.48836 0.97253,-4.72641 4.43396,-13.22227 5.70786,-14.00959 0.36974,-0.22851 0.67226,-0.96613 0.67226,-1.63915 0,-0.67302 0.99744,-2.43374 2.21654,-3.91272 1.87236,-2.27149 2.38671,-2.54783 3.31235,-1.77962 0.90681,0.75259 1.02466,2.16577 0.68329,8.1938 -0.22688,4.00639 -0.73063,8.51077 -1.11944,10.00972 -1.04178,4.01624 -2.39447,15.15586 -2.9764,24.51109 -0.28103,4.51786 -0.9002,9.66071 -1.37593,11.42857 -0.47574,1.76786 -1.33639,4.98214 -1.91257,7.14286 -0.57618,2.16071 -1.33418,4.57143 -1.68443,5.35714 -0.35026,0.78572 -1.312,2.97011 -2.1372,4.85422 -1.55444,3.54912 -3.86349,6.40755 -4.58954,5.6815 z"
           id="path4192"
           inkscape:connector-curvature="0"
           transform="translate(0,-6.1107223e-5)" />
        <path
           style="fill:#000000;fill-opacity:1;stroke:#000000;stroke-width:0.71428573;stroke-miterlimit:4;stroke-dasharray:none;stroke-dashoffset:0;stroke-opacity:1"
           d="m 777.77258,972.06821 c 0,-0.29865 0.73177,-1.3433 1.62615,-2.32142 2.24489,-2.45509 8.37385,-10.50832 8.37385,-11.00294 0,-0.22245 1.37564,-2.41651 3.05697,-4.87568 4.69264,-6.86361 5.30904,-8.75526 3.74811,-11.50253 -0.7045,-1.23993 -3.04877,-4.07483 -5.2095,-6.29978 -3.14422,-3.23768 -3.84537,-4.37858 -3.51175,-5.71428 1.29552,-5.18678 2.44962,-8.40538 3.88046,-10.82196 0.88392,-1.49288 1.60893,-3.09775 1.61112,-3.56636 0.002,-0.46862 0.34675,-2.08643 0.76568,-3.59514 0.66606,-2.39868 0.9734,-2.68997 2.44776,-2.31993 3.05222,0.76606 10.39504,6.14538 11.11841,8.14531 0.38151,1.05475 0.98239,2.56058 1.33531,3.3463 1.61546,3.59662 1.42489,7.00401 -0.99873,17.85714 -0.6141,2.75 -1.44641,6.92857 -1.84956,9.28572 -1.0691,6.25065 -2.82602,9.46226 -7.92315,14.48324 -5.91118,5.82287 -11.91315,9.44533 -15.64976,9.44533 -1.55175,0 -2.82137,-0.24436 -2.82137,-0.54302 z"
           id="path4194"
           inkscape:connector-curvature="0"
           transform="translate(0,-6.1107223e-5)" />
        <path
           style="fill:#000000;fill-opacity:1;stroke:#000000;stroke-width:0.71428573;stroke-miterlimit:4;stroke-dasharray:none;stroke-dashoffset:0;stroke-opacity:1"
           d="m 755.98687,804.97163 c -1.17858,-0.63461 -3.71475,-2.66543 -5.63595,-4.51295 -3.4379,-3.30605 -3.47653,-3.39175 -2.44547,-5.42471 0.57618,-1.13608 1.58557,-3.13629 2.24308,-4.44491 0.65751,-1.30863 1.19548,-3.11748 1.19548,-4.01969 0,-0.9022 0.48214,-2.04051 1.07143,-2.52957 0.58928,-0.48907 1.07143,-1.33672 1.07143,-1.88368 0,-0.91256 3.93387,-3.82172 5.17628,-3.82794 1.3112,-0.007 7.56302,7.47597 8.42267,10.08073 1.19013,3.60613 0.15932,8.18479 -2.79538,12.4166 -1.09719,1.57143 -2.1989,3.41965 -2.44824,4.10715 -0.56309,1.55257 -3.01402,1.56888 -5.85533,0.039 z"
           id="path4196"
           inkscape:connector-curvature="0"
           transform="translate(0,-6.1107223e-5)" />
        <path
           style="fill:#000000;fill-opacity:1;stroke:#000000;stroke-width:0.71428573;stroke-miterlimit:4;stroke-dasharray:none;stroke-dashoffset:0;stroke-opacity:1"
           d="m 666.26223,834.76549 c -1.33002,-1.17229 -2.73965,-2.14727 -3.13251,-2.16662 -1.02982,-0.0507 -3.92857,-2.58683 -3.92857,-3.43711 0,-0.39626 0.45425,-1.63045 1.00944,-2.74265 0.55519,-1.11219 1.59983,-3.27092 2.32143,-4.79718 1.69324,-3.58141 5.99527,-8.10007 8.25065,-8.66614 1.198,-0.30067 2.8175,0.14578 5.04992,1.39212 4.56644,2.54942 6.02742,2.36068 9.41107,-1.21574 4.95693,-5.23933 4.76473,-5.18808 9.07051,-2.41876 4.36853,2.80966 7.03467,5.63529 7.01908,7.43896 -0.0191,2.21334 -1.75758,6.33515 -3.7202,8.82045 -4.01187,5.08033 -6.7288,7.78126 -7.82733,7.78126 -0.62652,0 -2.54115,-1.38156 -4.25471,-3.07013 -4.293,-4.23038 -5.0167,-4.38519 -6.99605,-1.49652 -0.91345,1.33309 -1.94081,2.4238 -2.28302,2.4238 -0.34222,0 -0.62222,0.43232 -0.62222,0.96072 0,1.60001 -2.48029,3.32499 -4.78088,3.32499 -1.39029,0 -3.03613,-0.76484 -4.58661,-2.13145 z"
           id="path4198"
           inkscape:connector-curvature="0"
           transform="translate(0,-6.1107223e-5)" />
        <path
           style="fill:#000000;fill-opacity:1;stroke:#000000;stroke-width:0.71428573;stroke-miterlimit:4;stroke-dasharray:none;stroke-dashoffset:0;stroke-opacity:1"
           d="m 676.57878,809.33561 c -0.71841,-1.0492 -2.64298,-3.28212 -4.27683,-4.96204 l -2.97063,-3.05441 2.97063,-5.99139 c 5.4111,-10.91352 7.07049,-12.04117 11.78312,-8.00734 6.3927,5.47192 6.64692,9.21908 1.18274,17.43365 -4.29897,6.46286 -6.57803,7.66455 -8.68903,4.58153 z"
           id="path4200"
           inkscape:connector-curvature="0"
           transform="translate(0,-6.1107223e-5)" />
        <path
           style="fill:#000000;fill-opacity:1;stroke:#000000;stroke-width:0.71428573;stroke-miterlimit:4;stroke-dasharray:none;stroke-dashoffset:0;stroke-opacity:1"
           d="m 593.97683,850.00595 c -0.6745,-0.6745 -0.61535,-3.58062 0.10346,-5.08299 0.88477,-1.84921 2.97607,-5.8319 4.9646,-9.45459 0.97039,-1.76786 2.43217,-4.5 3.24839,-6.07143 4.32595,-8.32851 8.82272,-13.72872 10.8001,-12.96993 2.27079,0.87139 0.42122,6.76282 -3.42554,10.91138 -0.87472,0.94334 -2.70212,3.88172 -4.06089,6.52972 -4.88341,9.5169 -10.48222,17.28575 -11.63012,16.13784 z"
           id="path4204"
           inkscape:connector-curvature="0"
           transform="translate(0,-6.1107223e-5)" />
        <path
           style="fill:#000000;fill-opacity:1;stroke:#000000;stroke-width:0.71428573;stroke-miterlimit:4;stroke-dasharray:none;stroke-dashoffset:0;stroke-opacity:1"
           d="m 504.55829,971.26289 c -3.26018,-1.50067 -5.03463,-4.43827 -5.65748,-9.36595 -0.61846,-4.89296 1.56805,-19.41057 3.16377,-21.00629 0.3894,-0.3894 0.708,-1.26564 0.708,-1.94721 0,-0.68157 0.37228,-2.14407 0.82728,-3.25 0.45501,-1.10593 0.92395,-3.13442 1.0421,-4.50775 0.31553,-3.66751 4.36347,-13.04259 6.72679,-15.57932 2.48923,-2.67188 7.81065,-1.98121 11.54332,1.4982 3.70251,3.45129 4.86545,6.67999 4.80969,13.35322 -0.0836,9.99903 -1.76942,21.95834 -3.54948,25.17946 -0.37698,0.68217 -0.68542,1.84817 -0.68542,2.59111 0,0.74294 -0.48214,1.75095 -1.07142,2.24001 -0.58929,0.48906 -1.07143,1.31057 -1.07143,1.82556 0,1.73302 -6.70377,7.8364 -9.64286,8.77926 -1.57143,0.50412 -3.17857,1.04894 -3.57143,1.21071 -0.39286,0.16178 -2,-0.29768 -3.57143,-1.02101 z m 9.16925,-17.17881 c 0.96924,-0.36851 2.59731,-1.57058 3.61793,-2.67127 3.36074,-3.62441 2.27187,-7.23714 -3.49311,-11.58974 l -4.06135,-3.06635 -1.18779,1.67396 c -0.65328,0.92068 -1.4114,2.63973 -1.68472,3.82011 -0.27331,1.18038 -0.71594,3.04775 -0.98363,4.1497 -0.5816,2.39424 1.44563,7.41613 3.18064,7.87912 1.98587,0.52992 2.79406,0.49566 4.61203,-0.19553 z"
           id="path4206"
           inkscape:connector-curvature="0"
           transform="translate(0,-6.1107223e-5)" />
        <path
           style="fill:#000000;fill-opacity:1;stroke:#000000;stroke-width:0.71428573;stroke-miterlimit:4;stroke-dasharray:none;stroke-dashoffset:0;stroke-opacity:1"
           d="m 471.57993,957.7898 c 0.21229,-1.47322 0.69448,-4.125 1.07155,-5.89286 1.93419,-9.06836 2.27398,-12.6021 2.98771,-31.07143 1.3584,-35.15181 2.04623,-39.80351 7.61782,-51.51812 2.59127,-5.44832 4.63551,-7.86209 5.9634,-7.0414 1.01644,0.62819 0.33504,9.05823 -1.14979,14.22488 -0.55678,1.93738 -1.01999,6.59809 -1.02937,10.35714 -0.009,3.75906 -0.34285,8.12036 -0.74107,9.69179 -0.39822,1.57143 -1.01398,8.96428 -1.36836,16.42857 -0.67466,14.21061 -1.72243,24.84297 -2.81166,28.53167 -3.58276,12.13306 -3.86223,12.75555 -7.47348,16.6469 -2.79923,3.01634 -3.54042,2.93002 -3.06675,-0.35714 z"
           id="path4210"
           inkscape:connector-curvature="0"
           transform="translate(0,-6.1107223e-5)" />
        <path
           style="fill:#000000;fill-opacity:1;stroke:#000000;stroke-width:0.71428573;stroke-miterlimit:4;stroke-dasharray:none;stroke-dashoffset:0;stroke-opacity:1"
           d="m 420.45115,970.6979 c -0.6875,-0.18386 -1.24285,-0.55178 -1.23412,-0.81762 0.0357,-1.08715 2.67469,-3.65132 5.65724,-5.49693 7.19561,-4.45264 23.61259,-22.71209 23.61259,-26.26262 0,-0.35791 0.43849,-1.66361 0.97442,-2.90155 0.53593,-1.23795 1.53487,-3.69724 2.21987,-5.4651 0.68501,-1.76785 1.69295,-4.06745 2.23988,-5.1102 0.54692,-1.04276 0.99441,-2.22569 0.99441,-2.62874 0,-0.40305 0.96428,-2.81616 2.14285,-5.36247 1.17857,-2.54631 2.14286,-4.97945 2.14286,-5.40697 0,-0.42753 0.65626,-0.77733 1.45836,-0.77733 1.38396,0 1.43397,0.28239 0.98027,5.53571 -0.26295,3.04465 -0.91454,6.82143 -1.44797,8.39286 -0.53343,1.57143 -0.97653,3.5 -0.98466,4.28572 -0.008,0.78571 -0.49496,2.34924 -1.08183,3.4745 -0.58686,1.12526 -1.06703,2.58776 -1.06703,3.25 0,0.66224 -0.30276,1.50942 -0.67281,1.88264 -0.37005,0.37321 -1.82181,3.73214 -3.22613,7.46428 -6.70313,17.81437 -8.2233,19.55609 -21.10106,24.1764 -4.18364,1.50101 -9.54854,2.31793 -11.60714,1.76742 z"
           id="path4212"
           inkscape:connector-curvature="0"
           transform="translate(0,-6.1107223e-5)" />
        <path
           style="fill:#000000;fill-opacity:1;stroke:#000000;stroke-width:0.71428573;stroke-miterlimit:4;stroke-dasharray:none;stroke-dashoffset:0;stroke-opacity:1"
           d="m 390.33943,969.86226 c -0.45045,-0.72885 2.16683,-3.6796 3.26376,-3.6796 0.42623,0 2.70034,-1.28572 5.05357,-2.85715 2.35324,-1.57143 4.36964,-2.85714 4.48091,-2.85714 0.51652,0 5.38603,-4.32739 9.09919,-8.08618 2.73197,-2.76554 4.10715,-4.73862 4.10715,-5.89286 0,-1.64882 -0.21816,-1.73525 -4.37998,-1.73525 -5.66086,0 -8.93725,-1.84717 -9.60679,-5.41614 -0.84842,-4.52246 0.4131,-13.19039 2.60283,-17.88412 2.619,-5.61387 8.33249,-10.98545 11.6847,-10.98545 4.18411,0 7.38791,5.16123 9.03403,14.55357 0.89495,5.10634 0.26467,11.29875 -1.82661,17.94643 -0.49435,1.57143 -1.2999,4.14286 -1.79012,5.71429 -1.85642,5.95095 -4.25948,10.22013 -7.14121,12.68678 -3.3156,2.83804 -12.71471,7.67036 -14.91922,7.67036 -0.78676,0 -1.62912,0.32143 -1.87192,0.71428 -0.53577,0.8669 -7.26363,0.96032 -7.79029,0.10818 z"
           id="path4214"
           inkscape:connector-curvature="0"
           transform="translate(0,-6.1107223e-5)" />
        <path
           style="fill:#000000;fill-opacity:1;stroke:#000000;stroke-width:0.71428573;stroke-miterlimit:4;stroke-dasharray:none;stroke-dashoffset:0;stroke-opacity:1"
           d="m 188.06265,974.38399 c -0.56346,-2.24499 0.29304,-9.46453 1.18849,-10.01794 0.36536,-0.22581 0.6643,-0.90552 0.6643,-1.51046 0,-1.00756 0.43644,-2.16677 3.18469,-8.45865 2.71617,-6.21841 13.27422,-26.9187 15.33534,-30.0667 1.31012,-2.00097 3.48646,-4.23291 4.83631,-4.95985 2.12871,-1.14639 2.75582,-1.20047 4.72754,-0.40773 1.25029,0.50269 2.91612,1.10306 3.70183,1.33416 0.78571,0.2311 3.44316,1.64996 5.90544,3.15301 2.46228,1.50305 4.72835,2.73283 5.03571,2.73283 0.30737,0 0.92703,0.36818 1.37704,0.81818 1.55785,1.55785 8.3586,3.46753 12.34858,3.46753 2.20402,0 5.43065,0.44168 7.17027,0.98151 8.21727,2.54995 19.48489,3.32568 27.76282,1.91136 4.24733,-0.72568 12.59714,-2.08524 16.11443,-2.62385 1.17857,-0.18047 3.91071,-0.83147 6.07142,-1.44666 2.16072,-0.61518 5.69643,-1.60883 7.85715,-2.2081 2.16071,-0.59928 5.05357,-1.4961 6.42857,-1.99294 1.375,-0.49684 4.10714,-1.40432 6.07143,-2.01663 6.01048,-1.8736 9.96666,-3.38636 10.67857,-4.08327 0.37321,-0.36535 1.23109,-0.66428 1.9064,-0.66428 0.67531,0 2.13781,-0.47195 3.25,-1.04879 1.11219,-0.57683 6.8436,-3.36536 12.73646,-6.19673 10.80071,-5.18948 22.9543,-12.08913 24.29834,-13.79428 0.39981,-0.50723 1.80997,-1.58087 3.13371,-2.38588 3.6141,-2.19787 11.916,-10.49812 13.73203,-13.72933 0.87944,-1.56474 1.88594,-2.84499 2.23667,-2.84499 0.35074,0 1.63339,0.99568 2.85033,2.21263 9.99926,9.99925 16.94695,7.17426 26.86276,-10.92263 0.92689,-1.69164 1.89118,-3.23643 2.14286,-3.43285 0.25167,-0.19643 1.68395,-2.17904 3.18285,-4.40579 1.49889,-2.22675 3.23636,-4.24476 3.86103,-4.48448 2.48051,-0.95185 7.53359,6.70085 8.44715,12.7929 0.80028,5.33666 -0.1492,9.29758 -2.91028,12.14074 l -2.43793,2.51039 -6.79942,-0.10864 c -7.91107,-0.1264 -7.63061,-0.2876 -13.98838,8.04008 -6.77687,8.87667 -8.63568,9.4251 -16.75458,4.94337 -2.84673,-1.57143 -5.50606,-2.85715 -5.90962,-2.85715 -0.40357,0 -5.34615,4.60876 -10.9835,10.24169 -9.2675,9.26022 -16.81095,15.90252 -23.01032,20.26149 -1.23168,0.86603 -2.65019,1.93174 -3.15224,2.36824 -1.88521,1.63906 -11.33534,7.8245 -14.08718,9.22055 -0.78571,0.39861 -3.03571,1.69388 -5,2.8784 -1.96428,1.18452 -4.05357,2.34181 -4.64286,2.57176 -0.58928,0.22995 -1.55357,0.71837 -2.14285,1.08539 -0.58929,0.36701 -1.55357,0.85703 -2.14286,1.08893 -0.58929,0.2319 -2.03571,0.84889 -3.21429,1.3711 -5.14982,2.2818 -7.5011,3.1667 -13.21428,4.97317 -10.8998,3.44644 -18.78709,5.39621 -25,6.18011 -15.20982,1.91906 -23.7227,2.28533 -33.74258,1.45178 -16.41992,-1.36596 -22.07933,-2.08595 -22.9077,-2.91431 -0.42806,-0.42807 -1.19132,-0.7783 -1.69613,-0.7783 -0.90164,0 -8.09677,-4.12208 -8.79645,-5.03947 -1.04636,-1.37195 -10.18944,-7.03148 -12.00299,-7.4298 -1.62795,-0.35756 -2.53243,-0.086 -3.93301,1.18103 -1.98566,1.79627 -6.19316,9.36773 -6.22957,11.21022 -0.0125,0.6322 -0.49464,1.77339 -1.07143,2.53597 -0.57679,0.76259 -1.04871,2.06438 -1.04871,2.89286 0,0.82849 -0.28756,1.81169 -0.63903,2.18491 -0.56243,0.59723 -1.04334,2.30132 -2.71125,9.60714 -0.49458,2.16637 -2.24147,4.28572 -3.53253,4.28572 -0.52092,0 -1.15026,-0.8094 -1.39855,-1.79867 z"
           id="path4216"
           inkscape:connector-curvature="0"
           transform="translate(0,-6.1107223e-5)" />
        <path
           style="fill:#000000;fill-opacity:1;stroke:#000000;stroke-width:0.71428573;stroke-miterlimit:4;stroke-dasharray:none;stroke-dashoffset:0;stroke-opacity:1"
           d="m 284.67734,866.42075 c -0.2619,-0.2619 -0.47619,-1.54069 -0.47619,-2.84175 0,-1.96087 0.84378,-3.23138 4.93228,-7.42666 2.71275,-2.78361 5.32278,-6.00386 5.80006,-7.15612 0.61953,-1.49569 0.7213,-4.43946 0.35572,-10.29026 l -0.51205,-8.19524 7.39056,-7.1129 c 4.06482,-3.9121 8.837,-8.15168 10.60486,-9.42128 1.76786,-1.26959 3.40567,-2.59725 3.63958,-2.95033 0.23392,-0.35309 2.02941,-1.8284 3.98999,-3.27848 3.78361,-2.79842 11.57852,-8.94037 14.00425,-11.03457 1.50324,-1.29779 2.72698,-3.16152 4.09951,-6.24348 1.23635,-2.77618 2.9049,-4.28702 4.73452,-4.28702 1.31668,0 1.67501,0.38738 1.67501,1.81084 0,3.20641 -2.58419,6.42166 -15.74178,19.58601 -5.19608,5.19873 -10.89187,10.03195 -15.41299,13.07882 -3.94416,2.65804 -7.97168,5.71161 -8.95005,6.78571 -2.48049,2.7232 -3.4833,7.8201 -3.28188,16.68062 l 0.17241,7.58486 -2.84236,4.13379 c -1.56329,2.2736 -4.77758,5.67988 -7.14285,7.56953 -4.08777,3.26577 -5.97447,4.07204 -7.0386,3.00791 z"
           id="path4218"
           inkscape:connector-curvature="0"
           transform="translate(0,-6.1107223e-5)" />
        <path
           style="fill:#000000;fill-opacity:1;stroke:#000000;stroke-width:0.71428573;stroke-miterlimit:4;stroke-dasharray:none;stroke-dashoffset:0;stroke-opacity:1"
           d="m 284.19638,1032.6023 c -0.42313,-0.7906 -2.17811,-3.1671 -3.89995,-5.2811 l -3.13063,-3.8435 3.51767,-4.3654 c 1.93473,-2.401 3.51768,-4.6753 3.51768,-5.0541 0,-1.4252 3.07311,-6.5123 4.34537,-7.1932 1.08481,-0.5806 2.04091,-0.06 5.28285,2.8758 2.17708,1.9716 4.35672,3.5847 4.84363,3.5847 0.90934,0 4.20379,-3.7515 6.41937,-7.3099 1.76668,-2.8374 4.27824,-3.867 6.18139,-2.534 1.93956,1.3585 5.78453,6.6827 5.78453,8.0099 0,0.5695 0.32143,1.2341 0.71429,1.4769 0.39286,0.2428 0.71428,1.702 0.71428,3.2426 0,2.1711 -0.79211,3.9804 -3.52151,8.0433 -6.27962,9.3477 -6.96077,9.4043 -13.89359,1.1561 -1.08391,-1.2896 -1.39212,-1.1428 -7.65247,3.6429 -3.58769,2.7426 -6.95744,4.9865 -7.48833,4.9865 -0.5309,0 -1.31146,-0.6469 -1.73458,-1.4375 z"
           id="path4220"
           inkscape:connector-curvature="0"
           transform="translate(0,-6.1107223e-5)" />
      </g>
    </g>
  </g>
</svg>
